<svg width="65" height="70" viewBox="0 0 65 70" fill="none" xmlns="http://www.w3.org/2000/svg">
<path d="M45.984 5.6416C45.1429 4.9116 44.1034 4.00704 42.9608 3.02314C47.0472 2.01542 51.0543 1.02358 55.1962 0C54.5059 4.08639 53.8473 8.01409 53.157 12.1084C52.0461 11.1404 50.9749 10.2041 49.6974 9.08528C47.1583 11.7037 44.6351 14.2984 42.1197 16.901C40.5645 18.5038 39.0807 20.186 37.4541 21.7015C36.7638 22.3442 35.7957 22.7489 34.8991 23.106C34.6214 23.2171 34.0898 22.8917 33.7645 22.6458C32.0664 21.3524 30.4081 20.0114 28.7338 18.6943C28.5196 18.5276 28.3054 18.3689 27.8848 18.0436C27.4008 18.5911 26.9485 19.1703 26.4248 19.694C22.8939 23.2488 19.355 26.8036 15.8002 30.3424C15.6018 30.5329 15.3003 30.7392 15.0464 30.7392C12.9516 30.7709 10.8569 30.7551 8.6748 30.7551C9.55556 29.8108 10.4284 28.811 11.3647 27.8747C16.2684 22.9552 21.18 18.0515 26.0836 13.132C27.1707 12.037 28.2736 11.9656 29.5987 13.013C31.3206 14.3778 33.0107 15.7822 34.796 17.2422C38.5332 13.37 42.215 9.55343 45.984 5.6416Z" fill="white"/>
<path d="M49.7212 29.0253C39.5012 29.9933 29.194 29.422 18.9502 30.398C18.9264 30.279 18.974 30.517 18.9502 30.398C30.043 27.4621 40.8739 23.9788 49.7053 16.1948C50.1814 17.1946 50.2131 26.5972 49.7212 29.0253Z" fill="white"/>
<path d="M26.7976 46.3944V49.9889C25.7026 49.5921 25.171 48.8621 25.2583 47.91C25.3297 47.0927 25.8772 46.5452 26.7976 46.3944Z" fill="white"/>
<path d="M30.2254 56.4636C30.1936 57.392 29.5113 58.114 28.5273 58.2251V54.5593C29.5351 54.7418 30.2492 55.5511 30.2254 56.4636Z" fill="white"/>
<path d="M64.1542 46.1088C64.1462 45.0852 63.4956 44.498 62.4799 44.498C61.0913 44.4901 59.7028 44.498 58.3221 44.498V44.5218C56.9018 44.5218 55.4815 44.498 54.0612 44.5298C50.7286 44.5933 47.9911 47.4577 48.0387 50.8062C48.0863 53.9324 50.8159 56.4795 54.1326 56.4795C56.4337 56.4874 58.7347 56.4716 61.0437 56.4795C63.1861 56.4874 64.1145 55.6701 64.1621 53.5278C64.2018 51.0521 64.178 48.5765 64.1542 46.1088ZM53.8073 52.6867C52.6805 52.7105 51.649 51.7028 51.6331 50.576C51.6252 49.4811 52.5853 48.4019 53.6168 48.3623C54.815 48.3146 55.8623 49.37 55.8703 50.6316C55.8782 51.7821 54.9895 52.6629 53.8073 52.6867Z" fill="white"/>
<path d="M61.2741 58.5663H60.1474C57.9495 58.5663 55.7436 58.5981 53.5457 58.5584C50.0623 58.5028 46.7774 55.7574 46.0394 52.3534C44.9603 47.3069 48.7769 42.5223 53.9583 42.4509C56.3546 42.4191 58.7509 42.4429 61.2107 42.4429C61.2345 41.9986 61.2662 41.6653 61.2662 41.34C61.2741 38.4597 61.2741 35.5794 61.2821 32.6991C61.29 31.4454 61.0282 30.3107 60.4886 29.3189C60.4727 29.2951 60.4648 29.2713 60.4489 29.2474C60.0046 28.4698 59.3857 27.7795 58.5763 27.1924C57.5686 26.4624 56.4895 25.9863 55.2993 25.8672C55.2913 25.8672 55.2834 25.8672 55.2834 25.8672C55.1247 25.8593 54.966 25.8514 54.8073 25.8514L53.268 25.899L52.9903 29.0332H55.0057C56.1245 29.0332 57.0291 29.9378 57.0291 31.0566C57.0291 31.612 56.8069 32.1198 56.4339 32.4848C56.069 32.8498 55.5611 33.0799 55.0057 33.0799H5.4691C4.35824 33.0799 3.45368 32.1754 3.45368 31.0645C3.45368 30.5091 3.67585 30.0012 4.04878 29.6363C4.41378 29.2713 4.9216 29.0411 5.47704 29.0411H7.548L10.5077 25.8831L6.39747 25.8593C2.87444 25.8593 0.0179346 28.7158 0.0179346 32.2388V33.2862C0.0179346 33.4449 0.0258678 33.6036 0.0338026 33.7623C0.00999836 34.0242 -0.00587064 34.3019 0.0020641 34.5796C0.152824 43.8553 0.0655411 53.139 0.0258674 62.4226C0.00999787 66.7867 3.01727 69.9844 7.40518 69.9923C22.9493 70.0082 38.4935 70.0003 54.0456 69.9606C56.6323 69.9527 58.7509 68.8497 60.2188 66.6518C61.8613 64.1365 61.1154 61.3593 61.2741 58.5663ZM31.8918 60.9467C30.9555 61.4149 29.9636 61.6529 28.9321 61.7323C28.8052 61.7402 28.6782 61.7561 28.5195 61.772V63.8747H26.8374V61.772C26.2978 61.6767 25.7741 61.6053 25.2663 61.4863C23.8222 61.1372 22.5526 60.4945 21.6004 59.3201C20.8704 58.4076 20.5689 57.3444 20.5054 56.17H25.2901C25.3774 56.7731 25.5519 57.3523 26.0518 57.757C26.2661 57.9315 26.512 58.0426 26.8056 58.2172C26.8136 58.0347 26.8215 57.9395 26.8215 57.8443C26.8215 56.662 26.8136 55.4876 26.8294 54.3054C26.8294 54.0673 26.7421 53.9959 26.5279 53.9245C25.5757 53.6388 24.6077 53.3849 23.6793 53.0199C22.2431 52.4566 21.0926 51.5282 20.6959 49.973C19.9738 47.1482 20.9657 44.8233 23.7825 43.5617C24.6077 43.1888 25.4805 42.9825 26.3771 42.8952C26.512 42.8793 26.6549 42.8635 26.8215 42.8397V40.7528H28.5116C28.5116 41.3559 28.5275 41.943 28.5037 42.5302C28.4957 42.8079 28.5989 42.8793 28.8528 42.9031C30.2652 43.038 31.5982 43.4348 32.7249 44.3393C33.9945 45.355 34.542 46.7197 34.669 48.3226H29.8605C29.7653 47.7989 29.6304 47.2752 29.194 46.9022C29.0115 46.7436 28.7893 46.6245 28.5354 46.4579C28.5195 46.6166 28.5116 46.7039 28.5116 46.7912C28.5116 47.9576 28.5195 49.124 28.5037 50.2983C28.5037 50.5205 28.5751 50.5998 28.7893 50.6633C29.8208 50.9807 30.8603 51.2664 31.8601 51.6631C33.2248 52.2106 34.2881 53.1231 34.7245 54.5989C35.4862 57.1936 34.3516 59.7089 31.8918 60.9467Z" fill="white"/>
</svg>
