<svg width="21" height="21" viewBox="0 0 21 21" fill="none" xmlns="http://www.w3.org/2000/svg">
<path d="M10.5 15.1667C9.85833 15.1667 9.30922 14.9384 8.85267 14.4818C8.39611 14.0253 8.16744 13.4758 8.16667 12.8333C8.16589 12.1909 8.39456 11.6418 8.85267 11.186C9.31078 10.7302 9.85989 10.5016 10.5 10.5C11.1401 10.4984 11.6896 10.7271 12.1485 11.186C12.6074 11.6449 12.8357 12.194 12.8333 12.8333C12.831 13.4727 12.6027 14.0222 12.1485 14.4818C11.6943 14.9415 11.1448 15.1698 10.5 15.1667ZM5.10417 4.66667H15.8958L17.3833 1.69167C17.5778 1.30278 17.563 0.923611 17.339 0.554167C17.115 0.184722 16.7798 0 16.3333 0H4.66667C4.21944 0 3.88422 0.184722 3.661 0.554167C3.43778 0.923611 3.423 1.30278 3.61667 1.69167L5.10417 4.66667ZM6.3 21H14.7C16.45 21 17.9375 20.3926 19.1625 19.1777C20.3875 17.9628 21 16.4702 21 14.7C21 13.9611 20.8736 13.2417 20.6208 12.5417C20.3681 11.8417 20.0083 11.2097 19.5417 10.6458L16.5083 7H4.49167L1.45833 10.6458C0.991667 11.2097 0.631944 11.8417 0.379167 12.5417C0.126389 13.2417 0 13.9611 0 14.7C0 16.4694 0.607834 17.962 1.8235 19.1777C3.03917 20.3933 4.53133 21.0008 6.3 21Z" fill="#222222"/>
</svg>
