<svg width="28" height="28" viewBox="0 0 28 28" fill="none" xmlns="http://www.w3.org/2000/svg">
<path fill-rule="evenodd" clip-rule="evenodd" d="M16.3428 22.1702L16.3498 19.8333C16.3498 19.5231 16.473 19.2257 16.6924 19.0063C16.9117 18.787 17.2092 18.6638 17.5194 18.6638C17.8296 18.6638 18.1271 18.787 18.3464 19.0063C18.5657 19.2257 18.689 19.5231 18.689 19.8333V22.1398C18.689 22.701 18.689 22.9822 18.8686 23.1548C19.0495 23.3263 19.3236 23.3147 19.8755 23.2913C22.049 23.1992 23.3848 22.9063 24.3251 21.966C25.2701 21.0257 25.563 19.6898 25.6551 17.5128C25.6726 17.0812 25.682 16.8642 25.6015 16.7207C25.5198 16.5772 25.199 16.3975 24.555 16.037C24.1922 15.8348 23.89 15.5393 23.6797 15.1812C23.4693 14.8231 23.3584 14.4153 23.3584 14C23.3584 13.5847 23.4693 13.1769 23.6797 12.8188C23.89 12.4607 24.1922 12.1652 24.555 11.963C25.199 11.6037 25.521 11.4228 25.6015 11.2793C25.682 11.1358 25.6726 10.92 25.654 10.4872C25.563 8.31017 25.269 6.9755 24.3251 6.034C23.302 5.01201 21.811 4.75417 19.2828 4.68884C19.2054 4.68681 19.1284 4.70031 19.0562 4.72855C18.9841 4.75678 18.9184 4.79917 18.863 4.85321C18.8075 4.90726 18.7634 4.97186 18.7333 5.04322C18.7033 5.11457 18.6878 5.19123 18.6878 5.26867V8.16667C18.6878 8.47686 18.5646 8.77435 18.3452 8.99369C18.1259 9.21303 17.8284 9.33625 17.5182 9.33625C17.208 9.33625 16.9105 9.21303 16.6912 8.99369C16.4719 8.77435 16.3486 8.47686 16.3486 8.16667L16.3405 5.24884C16.3402 5.09433 16.2786 4.94626 16.1692 4.83711C16.0598 4.72797 15.9116 4.66667 15.7571 4.66667H11.6598C7.2498 4.66667 5.0448 4.66667 3.67397 6.034C2.72897 6.97434 2.43613 8.31017 2.34397 10.4872C2.32647 10.9188 2.31713 11.1358 2.39763 11.2793C2.4793 11.4228 2.80013 11.6037 3.44413 11.963C3.80689 12.1652 4.10906 12.4607 4.31942 12.8188C4.52977 13.1769 4.64068 13.5847 4.64068 14C4.64068 14.4153 4.52977 14.8231 4.31942 15.1812C4.10906 15.5393 3.80689 15.8348 3.44413 16.037C2.80013 16.3975 2.47813 16.5772 2.39763 16.7207C2.31713 16.8642 2.32647 17.08 2.34513 17.5117C2.43613 19.6898 2.73013 21.0257 3.67397 21.966C5.0448 23.3333 7.2498 23.3333 11.661 23.3333H15.1726C15.7233 23.3333 15.9975 23.3333 16.169 23.163C16.3405 22.9927 16.3416 22.7197 16.3428 22.1702ZM18.6878 15.1667V12.8333C18.6878 12.5231 18.5646 12.2257 18.3452 12.0063C18.1259 11.787 17.8284 11.6638 17.5182 11.6638C17.208 11.6638 16.9105 11.787 16.6912 12.0063C16.4719 12.2257 16.3486 12.5231 16.3486 12.8333V15.1667C16.3486 15.477 16.4719 15.7747 16.6914 15.9941C16.9108 16.2136 17.2085 16.3368 17.5188 16.3368C17.8291 16.3368 18.1268 16.2136 18.3462 15.9941C18.5657 15.7747 18.6878 15.477 18.6878 15.1667Z" fill="white"/>
</svg>
