<svg width="18" height="18" viewBox="0 0 18 18" fill="none" xmlns="http://www.w3.org/2000/svg">
<g clip-path="url(#clip0_29_2003)">
<path d="M8.94348 0C7.77395 0 6.8796 0.894348 6.8796 2.06388V6.19164C6.8796 7.36117 7.77395 8.25552 8.94348 8.25552H13.0712L15.8231 11.0074V8.25552C16.9926 8.25552 17.887 7.36117 17.887 6.19164V2.06388C17.887 0.894348 16.9926 0 15.8231 0H8.94348ZM11.8247 2.06388H13.0066L14.1678 6.19164H13.1359L12.8559 5.1597H11.824L11.5667 6.19164H10.6634L11.8247 2.06388ZM12.3833 2.75184C12.3145 3.02702 12.2374 3.36275 12.1679 3.56914L11.9753 4.47174H12.7919L12.5979 3.56845C12.461 3.36275 12.3833 3.02702 12.3833 2.75184ZM2.06388 6.8796C0.894348 6.8796 0 7.77395 0 8.94348V13.0712C0 14.2408 0.894348 15.1351 2.06388 15.1351V17.887L4.81572 15.1351H8.94348C10.113 15.1351 11.0074 14.2408 11.0074 13.0712V8.94348H8.94348C7.63635 8.94348 6.60029 8.04913 6.25631 6.8796H2.06388ZM5.22437 8.87881C6.3939 8.87881 6.94427 9.84195 6.94427 10.9427C6.94427 11.9058 6.61336 12.5167 6.06299 12.7919C6.33817 12.9295 6.66427 13.0024 7.00825 13.0712L6.75095 13.7592C6.26938 13.6216 5.76992 13.407 5.28835 13.1999C5.21955 13.1311 5.09916 13.1359 5.03036 13.1359C4.20481 13.0671 3.4398 12.3833 3.4398 11.0074C3.4398 9.83782 4.12363 8.87881 5.22437 8.87881ZM5.22437 9.63144C4.674 9.63144 4.40707 10.2506 4.40707 11.0074C4.40707 11.8329 4.674 12.3833 5.22437 12.3833C5.77473 12.3833 6.0623 11.7641 6.0623 11.0074C6.0623 10.2506 5.77473 9.63144 5.22437 9.63144Z" fill="#2F7E79"/>
</g>
<defs>
<clipPath id="clip0_29_2003">
<rect width="17.887" height="17.887" fill="white"/>
</clipPath>
</defs>
</svg>
