<svg width="28" height="28" viewBox="0 0 28 28" fill="none" xmlns="http://www.w3.org/2000/svg">
<path d="M6.69132 16.1193L5.83377 19.3206L2.69946 19.3869C1.76276 17.6495 1.23145 15.6618 1.23145 13.5494C1.23145 11.5068 1.72821 9.58055 2.60876 7.88446H2.60943L5.39985 8.39604L6.62222 11.1697C6.36638 11.9156 6.22694 12.7163 6.22694 13.5494C6.22703 14.4536 6.39083 15.32 6.69132 16.1193Z" fill="#FBBB00"/>
<path d="M25.6533 11.2484C25.7948 11.9936 25.8685 12.7631 25.8685 13.5496C25.8685 14.4315 25.7758 15.2917 25.5992 16.1215C24.9995 18.9452 23.4327 21.4108 21.2622 23.1557L21.2615 23.155L17.7468 22.9756L17.2494 19.8704C18.6896 19.0257 19.8152 17.7039 20.4081 16.1215H13.8213V11.2484H20.5042H25.6533Z" fill="#518EF8"/>
<path d="M21.2612 23.1556L21.2618 23.1562C19.1509 24.853 16.4693 25.8682 13.5502 25.8682C8.85921 25.8682 4.78074 23.2463 2.7002 19.3877L6.69206 16.1201C7.7323 18.8964 10.4105 20.8727 13.5502 20.8727C14.8998 20.8727 16.1641 20.5079 17.249 19.871L21.2612 23.1556Z" fill="#28B446"/>
<path d="M21.4122 4.0679L17.4217 7.33487C16.2988 6.63303 14.9716 6.2276 13.5496 6.2276C10.3388 6.2276 7.61054 8.29457 6.6224 11.1704L2.60956 7.88514H2.60889C4.65897 3.93254 8.78888 1.23206 13.5496 1.23206C16.5384 1.23206 19.2788 2.2967 21.4122 4.0679Z" fill="#F14336"/>
</svg>
