<svg width="19" height="21" viewBox="0 0 19 21" fill="none" xmlns="http://www.w3.org/2000/svg">
<path d="M0 18.0833V7.58333C0 7.21389 0.0828331 6.86389 0.2485 6.53333C0.414166 6.20278 0.642445 5.93055 0.933334 5.71667L7.93333 0.466667C8.34167 0.155556 8.80833 0 9.33333 0C9.85833 0 10.325 0.155556 10.7333 0.466667L17.7333 5.71667C18.025 5.93055 18.2537 6.20278 18.4193 6.53333C18.585 6.86389 18.6674 7.21389 18.6667 7.58333V18.0833C18.6667 18.725 18.438 19.2745 17.9807 19.7318C17.5233 20.1892 16.9742 20.4174 16.3333 20.4167H12.8333C12.5028 20.4167 12.2259 20.3047 12.0027 20.0807C11.7794 19.8567 11.6674 19.5798 11.6667 19.25V13.4167C11.6667 13.0861 11.5547 12.8092 11.3307 12.586C11.1067 12.3628 10.8298 12.2508 10.5 12.25H8.16667C7.83611 12.25 7.55922 12.362 7.336 12.586C7.11278 12.81 7.00078 13.0869 7 13.4167V19.25C7 19.5806 6.888 19.8578 6.664 20.0818C6.44 20.3058 6.16311 20.4174 5.83333 20.4167H2.33333C1.69167 20.4167 1.14256 20.1884 0.686 19.7318C0.229444 19.2753 0.000777778 18.7258 0 18.0833Z" fill="#2F7E79"/>
</svg>
