<svg width="414" height="517" viewBox="0 0 414 517" fill="none" xmlns="http://www.w3.org/2000/svg">
<path d="M0 0H414V471.531C414 471.531 366 517 207 517C48 517 0 471.531 0 471.531V0Z" fill="url(#paint0_linear_95_2234)"/>
<path opacity="0.1" d="M-43 65C-43 123.542 4.45781 171 63 171C121.542 171 169 123.542 169 65C169 6.45782 121.542 -41 63 -41C4.45781 -41 -43 6.45782 -43 65ZM147.8 65C147.8 111.834 109.834 149.8 63 149.8C16.1662 149.8 -21.8 111.834 -21.8 65C-21.8 18.1663 16.1662 -19.8 63 -19.8C109.834 -19.8 147.8 18.1663 147.8 65Z" fill="url(#paint1_linear_95_2234)"/>
<path opacity="0.1" d="M71 22.5C71 57.5701 99.4299 86 134.5 86C169.57 86 198 57.5701 198 22.5C198 -12.5701 169.57 -41 134.5 -41C99.4299 -41 71 -12.5701 71 22.5ZM185.3 22.5C185.3 50.5561 162.556 73.3 134.5 73.3C106.444 73.3 83.7 50.5561 83.7 22.5C83.7 -5.55606 106.444 -28.3 134.5 -28.3C162.556 -28.3 185.3 -5.55606 185.3 22.5Z" fill="url(#paint2_linear_95_2234)"/>
<path opacity="0.1" d="M224 -5.5C224 17.9721 204.972 37 181.5 37C158.028 37 139 17.9721 139 -5.5C139 -28.9721 158.028 -48 181.5 -48C204.972 -48 224 -28.9721 224 -5.5ZM147.5 -5.5C147.5 13.2777 162.722 28.5 181.5 28.5C200.278 28.5 215.5 13.2777 215.5 -5.5C215.5 -24.2777 200.278 -39.5 181.5 -39.5C162.722 -39.5 147.5 -24.2777 147.5 -5.5Z" fill="url(#paint3_linear_95_2234)"/>
<defs>
<linearGradient id="paint0_linear_95_2234" x1="-10.5" y1="-30.752" x2="494.598" y2="430.159" gradientUnits="userSpaceOnUse">
<stop stop-color="#429690"/>
<stop offset="1" stop-color="#2A7C76"/>
</linearGradient>
<linearGradient id="paint1_linear_95_2234" x1="142.5" y1="-38.5909" x2="-85.1591" y2="189.068" gradientUnits="userSpaceOnUse">
<stop stop-color="white" stop-opacity="0"/>
<stop offset="1" stop-color="white" stop-opacity="0.7"/>
</linearGradient>
<linearGradient id="paint2_linear_95_2234" x1="182.125" y1="-39.5568" x2="45.7443" y2="96.8238" gradientUnits="userSpaceOnUse">
<stop stop-color="white" stop-opacity="0"/>
<stop offset="1" stop-color="white" stop-opacity="0.7"/>
</linearGradient>
<linearGradient id="paint3_linear_95_2234" x1="149.625" y1="-47.0341" x2="240.903" y2="44.2443" gradientUnits="userSpaceOnUse">
<stop stop-color="white" stop-opacity="0"/>
<stop offset="1" stop-color="white" stop-opacity="0.7"/>
</linearGradient>
</defs>
</svg>
