<svg width="20" height="20" viewBox="0 0 20 20" fill="none" xmlns="http://www.w3.org/2000/svg">
<path fill-rule="evenodd" clip-rule="evenodd" d="M4.26934 8.17515V6.50434C4.26934 5.04882 4.84755 3.65292 5.87675 2.62371C6.90596 1.5945 8.30187 1.0163 9.75739 1.0163C11.2129 1.0163 12.6088 1.5945 13.638 2.62371C14.6672 3.65292 15.2454 5.04882 15.2454 6.50434V8.17515C16.152 8.24263 16.7414 8.41337 17.1732 8.84509C17.8878 9.55894 17.8878 10.7094 17.8878 13.0087C17.8878 15.308 17.8878 16.4584 17.1732 17.1723C16.4593 17.8869 15.3088 17.8869 13.0096 17.8869H6.50521C4.20593 17.8869 3.05547 17.8869 2.34162 17.1723C1.62695 16.4584 1.62695 15.308 1.62695 13.0087C1.62695 10.7094 1.62695 9.55894 2.34162 8.84509C2.77253 8.41337 3.3628 8.24263 4.26934 8.17515ZM5.48891 6.50434C5.48891 5.37227 5.93862 4.28657 6.73912 3.48607C7.53961 2.68558 8.62532 2.23586 9.75739 2.23586C10.8895 2.23586 11.9752 2.68558 12.7757 3.48607C13.5762 4.28657 14.0259 5.37227 14.0259 6.50434V8.13368C13.7147 8.13097 13.376 8.12989 13.0096 8.13043H6.50521C6.13826 8.12989 5.79949 8.13097 5.48891 8.13368V6.50434ZM6.50521 13.8217C6.72085 13.8217 6.92765 13.7361 7.08012 13.5836C7.2326 13.4311 7.31826 13.2243 7.31826 13.0087C7.31826 12.7931 7.2326 12.5863 7.08012 12.4338C6.92765 12.2813 6.72085 12.1956 6.50521 12.1956C6.28958 12.1956 6.08278 12.2813 5.93031 12.4338C5.77783 12.5863 5.69217 12.7931 5.69217 13.0087C5.69217 13.2243 5.77783 13.4311 5.93031 13.5836C6.08278 13.7361 6.28958 13.8217 6.50521 13.8217ZM9.75739 13.8217C9.97302 13.8217 10.1798 13.7361 10.3323 13.5836C10.4848 13.4311 10.5704 13.2243 10.5704 13.0087C10.5704 12.7931 10.4848 12.5863 10.3323 12.4338C10.1798 12.2813 9.97302 12.1956 9.75739 12.1956C9.54175 12.1956 9.33495 12.2813 9.18248 12.4338C9.03 12.5863 8.94434 12.7931 8.94434 13.0087C8.94434 13.2243 9.03 13.4311 9.18248 13.5836C9.33495 13.7361 9.54175 13.8217 9.75739 13.8217ZM13.8226 13.0087C13.8226 13.2243 13.7369 13.4311 13.5845 13.5836C13.432 13.7361 13.2252 13.8217 13.0096 13.8217C12.7939 13.8217 12.5871 13.7361 12.4347 13.5836C12.2822 13.4311 12.1965 13.2243 12.1965 13.0087C12.1965 12.7931 12.2822 12.5863 12.4347 12.4338C12.5871 12.2813 12.7939 12.1956 13.0096 12.1956C13.2252 12.1956 13.432 12.2813 13.5845 12.4338C13.7369 12.5863 13.8226 12.7931 13.8226 13.0087Z" fill="#2F7E79"/>
</svg>
