<svg width="13" height="13" viewBox="0 0 13 13" fill="none" xmlns="http://www.w3.org/2000/svg">
<path d="M1.31388 13.0087C0.939336 13.0087 0.626856 12.8835 0.376439 12.6331C0.126022 12.3827 0.000542029 12.0699 0 11.6948V1.31388C0 0.939336 0.12548 0.626856 0.376439 0.376439C0.627398 0.126022 0.939878 0.000542029 1.31388 0H11.6956C12.0696 0 12.3821 0.12548 12.6331 0.376439C12.884 0.627398 13.0092 0.939878 13.0087 1.31388V11.6956C13.0087 12.0696 12.8835 12.3821 12.6331 12.6331C12.3827 12.884 12.0699 13.0092 11.6948 13.0087H1.31388ZM2.84565 10.163H7.72391V9.35H2.84565V10.163ZM2.84565 6.91087H10.163V6.09783H2.84565V6.91087ZM2.84565 3.6587H10.163V2.84565H2.84565V3.6587Z" fill="#2F7E79"/>
</svg>
