<svg width="18" height="18" viewBox="0 0 18 18" fill="none" xmlns="http://www.w3.org/2000/svg">
<path d="M4.47237 13.4152L2.7582 15.1294C2.5222 15.3654 2.2519 15.4183 1.94733 15.2881C1.64275 15.158 1.49072 14.9249 1.49121 14.589V2.98116C1.49121 2.57125 1.63729 2.22047 1.92944 1.92881C2.2216 1.63715 2.57238 1.49108 2.98179 1.49058H14.9064C15.3163 1.49058 15.6674 1.63666 15.9595 1.92881C16.2517 2.22096 16.3975 2.57175 16.397 2.98116V11.9246C16.397 12.3345 16.2512 12.6856 15.9595 12.9777C15.6679 13.2699 15.3168 13.4157 14.9064 13.4152H4.47237ZM8.94411 11.1793C9.15528 11.1793 9.33241 11.1078 9.4755 10.9647C9.6186 10.8216 9.6899 10.6447 9.6894 10.4341C9.6889 10.2234 9.61736 10.0465 9.47476 9.90341C9.33216 9.76032 9.15528 9.68877 8.94411 9.68877C8.73295 9.68877 8.55606 9.76032 8.41346 9.90341C8.27087 10.0465 8.19932 10.2234 8.19882 10.4341C8.19832 10.6447 8.26987 10.8219 8.41346 10.9655C8.55706 11.109 8.73394 11.1803 8.94411 11.1793ZM8.94411 8.19819C9.15528 8.19819 9.33241 8.12664 9.4755 7.98354C9.6186 7.84045 9.6899 7.66357 9.6894 7.4529V4.47174C9.6894 4.26057 9.61785 4.08369 9.47476 3.94109C9.33166 3.79849 9.15478 3.72695 8.94411 3.72645C8.73344 3.72595 8.55656 3.7975 8.41346 3.94109C8.27037 4.08469 8.19882 4.26157 8.19882 4.47174V7.4529C8.19882 7.66406 8.27037 7.84119 8.41346 7.98429C8.55656 8.12739 8.73344 8.19868 8.94411 8.19819Z" fill="#2F7E79"/>
</svg>
