<svg width="28" height="26" viewBox="0 0 28 26" fill="none" xmlns="http://www.w3.org/2000/svg">
<path d="M4.08333 25.0833H23.9167C24.9996 25.0833 26.0382 24.6531 26.804 23.8874C27.5698 23.1216 28 22.083 28 21V9.33333C28 8.25037 27.5698 7.21175 26.804 6.44598C26.0382 5.68021 24.9996 5.25 23.9167 5.25H19.5417C19.4643 5.25 19.3901 5.21927 19.3354 5.16457C19.2807 5.10988 19.25 5.03569 19.25 4.95833V3.5C19.25 2.57174 18.8813 1.6815 18.2249 1.02513C17.5685 0.368749 16.6783 0 15.75 0H12.25C11.3217 0 10.4315 0.368749 9.77513 1.02513C9.11875 1.6815 8.75 2.57174 8.75 3.5V4.95833C8.75 5.03569 8.71927 5.10988 8.66457 5.16457C8.60987 5.21927 8.53569 5.25 8.45833 5.25H4.08333C3.00037 5.25 1.96175 5.68021 1.19598 6.44598C0.430207 7.21175 0 8.25037 0 9.33333L0 21C0 22.083 0.430207 23.1216 1.19598 23.8874C1.96175 24.6531 3.00037 25.0833 4.08333 25.0833ZM11.0833 3.5C11.0833 3.19058 11.2062 2.89383 11.425 2.67504C11.6438 2.45625 11.9406 2.33333 12.25 2.33333H15.75C16.0594 2.33333 16.3562 2.45625 16.575 2.67504C16.7937 2.89383 16.9167 3.19058 16.9167 3.5V4.95833C16.9167 5.03569 16.8859 5.10988 16.8312 5.16457C16.7765 5.21927 16.7024 5.25 16.625 5.25H11.375C11.2976 5.25 11.2235 5.21927 11.1688 5.16457C11.1141 5.10988 11.0833 5.03569 11.0833 4.95833V3.5ZM15.2833 16.8817L11.7833 15.5983C11.2797 15.3625 10.8589 14.9803 10.5758 14.5016C10.2927 14.0229 10.1606 13.47 10.1967 12.915C10.1872 12.2541 10.4188 11.6123 10.8483 11.1098C11.2778 10.6073 11.8756 10.2786 12.53 10.185C12.5949 10.1676 12.6526 10.13 12.6946 10.0775C12.7365 10.025 12.7606 9.96048 12.7633 9.89333V9.33333C12.7633 9.02391 12.8862 8.72717 13.105 8.50838C13.3238 8.28958 13.6206 8.16667 13.93 8.16667C14.2394 8.16667 14.5362 8.28958 14.755 8.50838C14.9738 8.72717 15.0967 9.02391 15.0967 9.33333V9.82333C15.0967 9.90069 15.1274 9.97488 15.1821 10.0296C15.2368 10.0843 15.311 10.115 15.3883 10.115H16.555C16.8644 10.115 17.1612 10.2379 17.38 10.4567C17.5988 10.6755 17.7217 10.9722 17.7217 11.2817C17.7217 11.5911 17.5988 11.8878 17.38 12.1066C17.1612 12.3254 16.8644 12.4483 16.555 12.4483H13.3467C12.5767 12.4483 12.5767 12.7867 12.5767 12.915C12.563 13.1044 12.6122 13.293 12.7167 13.4517L16.2167 14.735C16.7203 14.9708 17.1411 15.3531 17.4242 15.8317C17.7073 16.3104 17.8394 16.8634 17.8033 17.4183C17.8128 18.0793 17.5812 18.721 17.1517 19.2235C16.7222 19.726 16.1244 20.0548 15.47 20.1483C15.4051 20.1657 15.3474 20.2034 15.3054 20.2559C15.2635 20.3083 15.2394 20.3729 15.2367 20.44V21C15.2367 21.3094 15.1138 21.6062 14.895 21.825C14.6762 22.0438 14.3794 22.1667 14.07 22.1667C13.7606 22.1667 13.4638 22.0438 13.245 21.825C13.0262 21.6062 12.9033 21.3094 12.9033 21V20.51C12.9033 20.4326 12.8726 20.3585 12.8179 20.3038C12.7632 20.2491 12.689 20.2183 12.6117 20.2183H11.445C11.1356 20.2183 10.8388 20.0954 10.62 19.8766C10.4012 19.6578 10.2783 19.3611 10.2783 19.0517C10.2783 18.7422 10.4012 18.4455 10.62 18.2267C10.8388 18.0079 11.1356 17.885 11.445 17.885H14.6883C15.4583 17.885 15.4583 17.5467 15.4583 17.4183C15.4618 17.2249 15.4002 17.0359 15.2833 16.8817Z" fill="white"/>
</svg>
