<svg width="15" height="17" viewBox="0 0 15 17" fill="none" xmlns="http://www.w3.org/2000/svg">
<path d="M12.1957 11.4477C11.5777 11.4477 11.0249 11.6916 10.6021 12.0737L4.80509 8.69957C4.84574 8.51257 4.87826 8.32557 4.87826 8.13043C4.87826 7.93531 4.84574 7.7483 4.80509 7.56131L10.537 4.2197C10.9761 4.62622 11.5533 4.87826 12.1957 4.87826C13.5453 4.87826 14.6348 3.78878 14.6348 2.43913C14.6348 1.08948 13.5453 0 12.1957 0C10.846 0 9.75652 1.08948 9.75652 2.43913C9.75652 2.63426 9.78904 2.82126 9.8297 3.00826L4.09774 6.34987C3.6587 5.94335 3.08143 5.6913 2.43913 5.6913C1.08948 5.6913 0 6.78078 0 8.13043C0 9.48009 1.08948 10.5696 2.43913 10.5696C3.08143 10.5696 3.6587 10.3175 4.09774 9.911L9.88661 13.2933C9.84596 13.464 9.82156 13.6429 9.82156 13.8217C9.82156 15.1307 10.8867 16.1958 12.1957 16.1958C13.5047 16.1958 14.5697 15.1307 14.5697 13.8217C14.5697 12.5127 13.5047 11.4477 12.1957 11.4477Z" fill="#2F7E79"/>
</svg>
