<svg width="233" height="220" viewBox="0 0 233 220" fill="none" xmlns="http://www.w3.org/2000/svg">
<path d="M144.013 15.1259C142.239 13.5857 140.046 11.6771 137.635 9.60117C146.257 7.475 154.711 5.38231 163.45 3.22266C161.994 11.8445 160.604 20.1316 159.148 28.7702C156.804 26.7277 154.544 24.7522 151.848 22.3917C146.491 27.9164 141.167 33.3909 135.86 38.8821C132.579 42.2639 129.448 45.8131 126.016 49.0107C124.56 50.3667 122.517 51.2206 120.625 51.9739C120.039 52.2083 118.918 51.5219 118.231 51.0029C114.649 48.2741 111.15 45.4447 107.617 42.6657C107.165 42.3141 106.713 41.9793 105.826 41.2928C104.805 42.448 103.85 43.6701 102.745 44.7751C95.2955 52.2753 87.8288 59.7755 80.3286 67.2422C79.91 67.644 79.2738 68.0793 78.7381 68.0793C74.3184 68.1462 69.8986 68.1127 65.2947 68.1127C67.153 66.1205 68.9946 64.0111 70.9701 62.0356C81.3163 51.6558 91.6793 41.3096 102.026 30.9299C104.319 28.6195 106.646 28.4689 109.442 30.6787C113.075 33.5583 116.641 36.5215 120.408 39.602C128.293 31.4321 136.061 23.3794 144.013 15.1259Z" fill="white"/>
<path d="M151.898 64.4631C130.335 66.5056 108.588 65.3002 86.9747 67.3594C86.9245 67.1083 87.0249 67.6105 86.9747 67.3594C110.379 61.165 133.232 53.8155 151.865 37.3921C152.869 39.5015 152.936 59.3402 151.898 64.4631Z" fill="white"/>
<path d="M103.532 101.11V108.694C101.222 107.857 100.1 106.317 100.284 104.308C100.435 102.584 101.59 101.428 103.532 101.11Z" fill="white"/>
<path d="M110.765 122.355C110.698 124.314 109.258 125.838 107.182 126.072V118.337C109.308 118.722 110.815 120.43 110.765 122.355Z" fill="white"/>
<path d="M182.351 100.508C182.334 98.3479 180.962 97.109 178.819 97.109C175.889 97.0923 172.959 97.109 170.046 97.109V97.1592C167.049 97.1592 164.053 97.109 161.056 97.176C154.025 97.3099 148.249 103.354 148.349 110.419C148.45 117.015 154.209 122.389 161.207 122.389C166.062 122.405 170.917 122.372 175.789 122.389C180.309 122.405 182.267 120.681 182.368 116.161C182.452 110.938 182.401 105.714 182.351 100.508ZM160.52 114.386C158.143 114.436 155.967 112.31 155.933 109.933C155.916 107.623 157.942 105.346 160.118 105.262C162.646 105.162 164.856 107.388 164.873 110.05C164.89 112.478 163.015 114.336 160.52 114.386Z" fill="white"/>
<path d="M176.274 126.792H173.897C169.259 126.792 164.605 126.859 159.968 126.775C152.618 126.658 145.687 120.865 144.13 113.683C141.853 103.036 149.906 92.9404 160.838 92.7897C165.894 92.7228 170.95 92.773 176.14 92.773C176.19 91.8355 176.257 91.1323 176.257 90.4459C176.274 84.3688 176.274 78.2916 176.291 72.2144C176.307 69.5693 175.755 67.1752 174.617 65.0825C174.583 65.0323 174.566 64.9821 174.533 64.9319C173.595 63.2912 172.29 61.8347 170.582 60.5958C168.456 59.0556 166.179 58.0511 163.668 57.8C163.651 57.8 163.634 57.8 163.634 57.8C163.299 57.7832 162.965 57.7665 162.63 57.7665L159.382 57.8669L158.796 64.4798H163.048C165.409 64.4798 167.317 66.3884 167.317 68.7489C167.317 69.9208 166.849 70.9923 166.062 71.7624C165.292 72.5325 164.22 73.018 163.048 73.018H58.531C56.1871 73.018 54.2786 71.1095 54.2786 68.7657C54.2786 67.5938 54.7474 66.5223 55.5342 65.7522C56.3043 64.9821 57.3758 64.4966 58.5477 64.4966H62.9172L69.1618 57.8335L60.4897 57.7832C53.0565 57.7832 47.0295 63.8102 47.0295 71.2434V73.4533C47.0295 73.7881 47.0463 74.1229 47.063 74.4578C47.0128 75.0103 46.9793 75.5962 46.9961 76.1822C47.3141 95.753 47.13 115.341 47.0463 134.928C47.0128 144.136 53.3578 150.883 62.6159 150.9C95.4125 150.933 128.209 150.916 161.022 150.833C166.48 150.816 170.95 148.489 174.047 143.851C177.513 138.544 175.939 132.685 176.274 126.792ZM114.28 131.814C112.305 132.802 110.212 133.304 108.036 133.472C107.768 133.488 107.5 133.522 107.165 133.555V137.992H103.616V133.555C102.477 133.354 101.372 133.204 100.301 132.953C97.2541 132.216 94.5754 130.86 92.5664 128.382C91.0262 126.457 90.3901 124.214 90.2561 121.736H100.351C100.535 123.008 100.904 124.23 101.958 125.084C102.41 125.452 102.929 125.687 103.549 126.055C103.566 125.67 103.582 125.469 103.582 125.268C103.582 122.774 103.566 120.296 103.599 117.802C103.599 117.299 103.415 117.149 102.963 116.998C100.954 116.395 98.9115 115.86 96.9527 115.089C93.9225 113.901 91.495 111.942 90.6579 108.661C89.1344 102.701 91.2271 97.7954 97.1704 95.1335C98.9115 94.3467 100.753 93.9114 102.645 93.7273C102.929 93.6938 103.231 93.6603 103.582 93.6101V89.207H107.148C107.148 90.4794 107.182 91.7183 107.132 92.9571C107.115 93.5431 107.332 93.6938 107.868 93.744C110.848 94.0286 113.661 94.8657 116.038 96.7742C118.717 98.9171 119.872 101.797 120.14 105.178H109.994C109.793 104.074 109.509 102.969 108.588 102.182C108.203 101.847 107.734 101.596 107.199 101.244C107.165 101.579 107.148 101.763 107.148 101.947C107.148 104.408 107.165 106.869 107.132 109.347C107.132 109.816 107.282 109.983 107.734 110.117C109.911 110.787 112.104 111.39 114.213 112.227C117.093 113.382 119.336 115.307 120.257 118.421C121.864 123.895 119.47 129.203 114.28 131.814Z" fill="white"/>
<path d="M3.66909 202.798V196.436C4.2383 196.955 4.9247 197.424 5.71155 197.843C6.4984 198.261 7.33548 198.613 8.22278 198.897C9.11008 199.182 9.98063 199.4 10.8679 199.567C11.7552 199.718 12.5588 199.801 13.3122 199.801C15.9071 199.801 17.8324 199.366 19.1048 198.512C20.3771 197.642 21.0133 196.386 21.0133 194.746C21.0133 193.858 20.7956 193.105 20.3771 192.452C19.9586 191.799 19.3559 191.213 18.6025 190.677C17.8491 190.142 16.9451 189.623 15.9239 189.137C14.9026 188.652 13.7977 188.133 12.6091 187.597C11.3534 186.927 10.1648 186.241 9.07659 185.554C7.98839 184.868 7.03413 184.098 6.23054 183.261C5.42694 182.424 4.79077 181.47 4.33875 180.415C3.88672 179.36 3.65234 178.121 3.65234 176.698C3.65234 174.957 4.0374 173.434 4.84099 172.144C5.62784 170.855 6.66582 169.801 7.95491 168.947C9.24401 168.11 10.7173 167.49 12.3579 167.072C13.9986 166.67 15.6727 166.469 17.3971 166.469C21.2812 166.469 24.1272 166.904 25.9018 167.792V173.886C23.7924 172.362 21.0803 171.609 17.7487 171.609C16.8279 171.609 15.9239 171.692 15.0198 171.86C14.1158 172.027 13.2955 172.312 12.5756 172.714C11.8557 173.116 11.2697 173.618 10.8177 174.237C10.3657 174.857 10.148 175.61 10.148 176.497C10.148 177.334 10.3155 178.038 10.667 178.657C11.0186 179.26 11.5209 179.812 12.1905 180.314C12.8602 180.817 13.6638 181.302 14.6348 181.788C15.589 182.256 16.7107 182.775 17.9663 183.328C19.2554 183.997 20.4943 184.717 21.6327 185.454C22.7879 186.191 23.7924 187.028 24.6629 187.915C25.5335 188.819 26.2199 189.807 26.7389 190.912C27.2411 192.017 27.509 193.256 27.509 194.662C27.509 196.554 27.1239 198.144 26.3706 199.433C25.6172 200.722 24.5792 201.794 23.2901 202.597C22.001 203.418 20.511 204.004 18.8369 204.355C17.1627 204.723 15.3881 204.908 13.5131 204.908C12.8937 204.908 12.1235 204.857 11.2195 204.757C10.3155 204.657 9.37794 204.523 8.42367 204.338C7.46941 204.154 6.56537 203.937 5.72829 203.669C4.85773 203.418 4.18807 203.116 3.66909 202.798Z" fill="white"/>
<path d="M39.7468 200.354H39.6463V216.493H33.6194V177.703H39.6463V182.374H39.7468C41.806 178.841 44.8195 177.083 48.7705 177.083C52.1355 177.083 54.7639 178.272 56.6557 180.632C58.5475 183.01 59.485 186.191 59.485 190.175C59.485 194.612 58.4136 198.144 56.2874 200.806C54.1612 203.468 51.2482 204.807 47.5651 204.807C44.2 204.824 41.5883 203.334 39.7468 200.354ZM39.5961 189.874V193.172C39.5961 195.114 40.2155 196.754 41.4544 198.094C42.6933 199.45 44.267 200.12 46.1588 200.12C48.3854 200.12 50.1433 199.249 51.4156 197.508C52.688 195.767 53.3241 193.339 53.3241 190.225C53.3241 187.614 52.7382 185.571 51.5495 184.081C50.3609 182.608 48.7537 181.855 46.7447 181.855C44.6018 181.855 42.8774 182.608 41.5716 184.131C40.249 185.688 39.5961 187.597 39.5961 189.874Z" fill="white"/>
<path d="M88.1468 192.619H70.0325C70.0995 195.08 70.8528 196.972 72.3093 198.295C73.7491 199.634 75.7413 200.287 78.2693 200.287C81.0986 200.287 83.7103 199.433 86.0709 197.742V202.597C83.6433 204.121 80.4457 204.874 76.478 204.874C72.5605 204.874 69.4968 203.669 67.2869 201.258C65.0603 198.847 63.9553 195.449 63.9553 191.079C63.9553 186.944 65.1775 183.579 67.6217 180.967C70.066 178.372 73.1129 177.066 76.7458 177.066C80.3787 177.066 83.1913 178.238 85.1836 180.565C87.1758 182.893 88.1635 186.14 88.1635 190.292V192.619H88.1468ZM82.3208 188.367C82.304 186.207 81.785 184.516 80.7973 183.328C79.7928 182.122 78.4032 181.52 76.6454 181.52C74.921 181.52 73.4478 182.156 72.2424 183.412C71.037 184.667 70.3004 186.325 70.0158 188.367H82.3208Z" fill="white"/>
<path d="M117.528 204.271H111.501V189.305C111.501 184.332 109.743 181.855 106.228 181.855C104.386 181.855 102.879 182.541 101.691 183.914C100.502 185.287 99.8993 187.028 99.8993 189.12V204.271H93.8723V177.703H99.916V182.106H100.016C102.009 178.757 104.871 177.066 108.638 177.066C111.535 177.066 113.728 178.004 115.251 179.879C116.775 181.754 117.528 184.466 117.528 188.015V204.271Z" fill="white"/>
<path d="M149.035 204.271H143.009V199.751H142.908C140.966 203.183 137.986 204.891 133.951 204.891C130.687 204.891 128.058 203.702 126.1 201.325C124.141 198.948 123.153 195.7 123.153 191.615C123.153 187.229 124.241 183.696 126.401 181.051C128.577 178.406 131.457 177.083 135.073 177.083C138.656 177.083 141.251 178.523 142.875 181.386H142.975V164.946H149.002V204.271H149.035ZM143.092 192.134V188.652C143.092 186.76 142.473 185.169 141.251 183.847C140.029 182.524 138.455 181.871 136.546 181.871C134.303 181.871 132.528 182.708 131.239 184.382C129.95 186.057 129.314 188.384 129.314 191.364C129.314 194.059 129.933 196.202 131.172 197.759C132.411 199.333 134.069 200.103 136.161 200.103C138.22 200.103 139.895 199.349 141.167 197.826C142.456 196.336 143.092 194.427 143.092 192.134Z" fill="white"/>
<path d="M159.934 172.128C158.947 172.128 158.11 171.81 157.407 171.173C156.703 170.537 156.352 169.717 156.352 168.729C156.352 167.741 156.703 166.921 157.407 166.268C158.11 165.615 158.947 165.28 159.934 165.28C160.956 165.28 161.826 165.615 162.529 166.268C163.233 166.921 163.601 167.741 163.601 168.729C163.601 169.667 163.249 170.47 162.529 171.123C161.81 171.793 160.956 172.128 159.934 172.128ZM162.914 204.271H156.888V177.703H162.914V204.271Z" fill="white"/>
<path d="M194.958 202.145C194.958 211.906 190.052 216.777 180.242 216.777C176.776 216.777 173.763 216.191 171.185 215.036V209.528C174.098 211.186 176.843 212.023 179.455 212.023C185.766 212.023 188.931 208.926 188.931 202.714V199.801H188.83C186.838 203.2 183.841 204.891 179.857 204.891C176.626 204.891 174.014 203.702 172.038 201.342C170.063 198.981 169.075 195.817 169.075 191.832C169.075 187.312 170.147 183.73 172.273 181.068C174.399 178.406 177.329 177.066 181.045 177.066C184.561 177.066 187.156 178.506 188.847 181.369H188.947V177.686H194.974V202.145H194.958ZM188.981 192.1V188.652C188.981 186.777 188.361 185.186 187.123 183.864C185.884 182.541 184.343 181.871 182.485 181.871C180.208 181.871 178.417 182.708 177.128 184.399C175.839 186.09 175.203 188.451 175.203 191.464C175.203 194.076 175.822 196.169 177.061 197.726C178.3 199.299 179.94 200.069 181.983 200.069C184.059 200.069 185.75 199.316 187.039 197.826C188.345 196.353 188.981 194.444 188.981 192.1Z" fill="white"/>
<path d="M214.562 204.891C210.46 204.891 207.196 203.652 204.735 201.174C202.29 198.697 201.068 195.398 201.068 191.297C201.068 186.827 202.341 183.345 204.902 180.833C207.447 178.322 210.896 177.066 215.215 177.066C219.367 177.066 222.598 178.289 224.925 180.733C227.235 183.177 228.407 186.559 228.407 190.878C228.407 195.114 227.152 198.512 224.657 201.057C222.146 203.618 218.781 204.891 214.562 204.891ZM214.847 181.888C212.486 181.888 210.628 182.708 209.272 184.349C207.899 185.99 207.229 188.267 207.229 191.146C207.229 193.925 207.916 196.118 209.305 197.726C210.695 199.333 212.536 200.12 214.863 200.12C217.241 200.12 219.049 199.333 220.321 197.759C221.593 196.185 222.23 193.942 222.23 191.046C222.23 188.116 221.593 185.873 220.321 184.282C219.049 182.675 217.224 181.888 214.847 181.888Z" fill="white"/>
</svg>
